<svg version="1.2" xmlns="http://www.w3.org/2000/svg" viewBox="0 0 8419 5953" width="8419" height="5953">
	<title>logo bleu-ai</title>
	<style>
		.s0 { fill: #303842 } 
		.s1 { fill: #fefefe } 
		.s2 { fill: #c59d3f } 
	</style>
	<g id="Calque 1">
		<path id="&lt;Path&gt;" class="s0" d="m5089.7 772.7h-1760.9c-648.4 0-1173.9 525.6-1173.9 1174v1467.4c0 510.8 326.3 945.1 781.8 1106.6l-206.9 560.9-5.8 98.7 121.9-29 869.5-563.3h1374.3c648.3 0 1173.9-525.6 1173.9-1173.9v-1467.4c0-648.4-525.6-1174-1173.9-1174z"/>
		<g id="&lt;Group&gt;">
			<path id="&lt;Path&gt;" class="s1" d="m4755.7 3809.7c-108.1 0-200.5 0-295.5 0-6.6-22-9.4-40.4 20.9-44.2 33.9-4.2 40.7-26.6 40.7-55.9-0.3-242.3-0.2-484.6-0.2-736.9-10.6 15.3-17.2 23.2-22 32-84 152.3-167.9 304.7-251.6 457.2-13.2 24.1-22.9 46.3-59.6 46.2-35.2-0.2-51.1-15.5-66.7-42.6-86.3-149.5-173.8-298.1-261-446.9-7.9-13.6-16.4-26.8-30-49.1-1.4 19.9-2.8 30.5-2.8 41-0.1 230.7 0.2 461.5-0.5 692.2-0.1 33.5 2.7 60.2 44.9 65.6 8.6 1 14.6 22.3 27.4 43.5-94.9 0-175.8 0.5-256.8-0.8-7.6-0.2-20.8-12.1-20.9-18.8-0.2-8.3 9.7-23.6 16.5-24.3 43.5-4.8 47.9-32.7 47.9-68.2-0.7-278.7-0.7-557.3-0.2-835.9 0-33.9-4.9-60.3-46.1-65.5-7.6-0.9-15.8-17.1-18.1-27.6-0.9-3.7 14.9-15.9 23.3-16 74-1.3 148.1-2.2 222 0.7 12.4 0.5 28.1 17.6 35.6 30.8 88.8 156.3 176.3 313.2 264.2 470 6.3 11.3 12.9 22.4 22.7 39.3 9.8-16.4 18-28.7 24.9-41.7 82.5-154.7 164-321.2 245-476.7 14.2-27.2 28.2-37.4 58.4-37.2 78.9 0.6 146.4 0.6 236.5-0.4-14.6 21.8-21.4 43.1-31.5 44.8-36.6 6.3-41.8 42.3-41.7 73.4 0.5 264.1 0.2 528.2 0.2 792.3 0 20.4 0.8 40.7-0.2 61-1.4 29.6 5.9 49.6 40 56.2 10.9 2.1 18.3 21.9 34.3 42.5z"/>
			<path id="&lt;Path&gt;" class="s2" d="m2806.3 1578.9c0-8.7 0-24.1 0-46.4 47.1 0 92.2 0 137.3 0 55.2 0 110.5-1.1 165.6 0.8 12.3 0.4 32.7 10.2 34 17.9 2.2 12.2-4.6 33.4-14.7 38.2-27.4 12.9-23.8 27.2-10.8 45.3 68 94.1 136.1 188.1 209.1 289.1 82.9-106.8 162.6-209.5 238.3-307.1-19.5-19.6-39.7-32.3-47.6-49.8-8.3-18.2 4-31.7 30-31.7 91 0 152 0 241.9 0 11.1 0 40.1 18.6 43.9 29.8 2.1 6.6-13.2 20.5-23.5 27.7-27.8 19.3-64.9 31.5-84.4 55.9-95.1 119.2-185 241.9-278.4 362.3-16.7 21.6-16.2 36.3 0.1 57.3 113 146.7 223.7 295 338 440.8 18.6 23.8 51.4 38.1 83.6 61.1 0 4.9 0 20.2 0 37.3-116.1 0-228.9 0-341.8 0-10.8-33.8-8.7-59.6 48.4-63.5-94.7-128.2-182.7-247.3-275.6-373.3-84.5 125-166.1 245.8-250.2 370.3 18.1 7.5 32.8 13.6 48.4 20.1 0 14 0 28.2 0 45.6-104.6 0-207.7 0-312.7 0 0-17.4 0-32.9 0-52.7 68.5 2.6 99-41.2 131.1-85.9 96.4-134.2 194.7-267.2 293.4-402.3-109.4-150.5-216.9-300.4-327.9-448-13.8-18.4-46.7-24.6-75.5-38.8z"/>
			<path id="&lt;Compound Path&gt;" fill-rule="evenodd" class="s1" d="m4333.4 2420c28.9-39 83.3-112.2 83.3-112.2l55.5 49.9c0 0-58 73.8-89.6 104.2 60.3 63.9 105.7 112.5 164.8 175.1-52.5-4.1-101.6-3.8-148.7-13.5-20-4.1-36.4-28.4-53-45-10.8-10.8-19-24.2-30.9-39.8-75.3 76.1-158.6 109.7-256.8 89.8-57.9-11.8-105.5-44.3-143-90.7-90.3-112-77-243.5 39.8-377.4-61.3-91-71.8-181.8 12.1-266.5 58-58.7 153.3-72.3 232.1-35.7 67.7 31.4 112.9 107.8 107.4 184.5-7.1 1.4-14.8 3.5-22.5 4.1-45 3.4-45 3.3-52.4-42.1-13.2-80.3-72.3-120.9-145.4-100.1-78.7 22.4-111.7 128.2-53.9 193.6 96.4 109.2 198.9 213.1 301.2 321.8zm-69.2 71.2c-92.6-95.9-184.1-190.5-275.9-285.6-66.4 84-55.4 221.1 19.9 286.4 78.4 68 190.6 69 256-0.8z"/>
			<path id="&lt;Path&gt;" class="s1" d="m5060.9 3705.4c55.2 0 108.5 0 161.8 0 63.8 0 127.7-0.6 191.6-0.1 46.2 0.4 79.6-22 94.9-63 12.5-33.7 30.5-41.6 65.5-30 0 64.2 0 129.7 0 197.6-249.1 0-495.2 0-742.3 0-6.5-23.4-8.7-41.7 21.8-45 29.3-3.1 36.9-22.2 36.8-49-0.4-291.8-0.9-583.5 0.4-875.3 0.2-44.2-28.3-51.6-59.2-59.3-11.2-32.3 0.8-43.2 32.2-43.1q335.3 0.8 670.6-0.2c26.6-0.1 39.9 6.2 38.8 36.3-1.9 56.3-0.5 112.8-0.5 170.6-34.4 9.9-52.9 5.7-69.4-29.6-11.8-25.5-43.5-57.6-67.6-58.8-124.1-5.9-248.7-2.7-375.3-2.7 0 123.6 0 243.5 0 370.3 13.5 0 27.3 0 41.1 0 82.8 0 165.5 1.3 248.2-0.6 35.2-0.9 74.2 0.1 89.7-45 2.1-6.1 18.2-13.3 23.9-10.8 8.2 3.5 17.9 15.3 18.2 23.8 1.7 50.7 1.6 101.6 0.1 152.3-0.2 8.8-9 22.4-16.4 24.3-7.8 2-19.2-6.1-27.9-11.5-20.9-12.9-40.8-37.7-61.7-38.5-104.1-4-208.4-1.9-315.3-1.9 0 128.9 0 254.6 0 389.2z"/>
		</g>
	</g>
</svg>