<svg width="2790" height="2280" viewBox="0 0 2790 2280" fill="none" xmlns="http://www.w3.org/2000/svg">
<g clip-path="url(#clip0_2634_1005)">
<path d="M1970.7 2277.7C1862.6 2277.7 1770.2 2277.7 1675.2 2277.7C1668.6 2255.7 1665.8 2237.3 1696.1 2233.5C1730 2229.3 1736.8 2206.9 1736.8 2177.6C1736.5 1935.3 1736.6 1693 1736.6 1440.7C1726 1456 1719.4 1463.9 1714.6 1472.7C1630.6 1625 1546.7 1777.4 1463 1929.9C1449.8 1954 1440.1 1976.2 1403.4 1976.1C1368.2 1975.9 1352.3 1960.6 1336.7 1933.5C1250.4 1784 1162.9 1635.4 1075.7 1486.6C1067.8 1473 1059.3 1459.8 1045.7 1437.5C1044.3 1457.4 1042.9 1468 1042.9 1478.5C1042.8 1709.2 1043.1 1940 1042.4 2170.7C1042.3 2204.2 1045.1 2230.9 1087.3 2236.3C1095.9 2237.3 1101.9 2258.6 1114.7 2279.8C1019.8 2279.8 938.9 2280.3 857.9 2279C850.3 2278.8 837.1 2266.9 837 2260.2C836.8 2251.9 846.7 2236.6 853.5 2235.9C897 2231.1 901.4 2203.2 901.4 2167.7C900.7 1889 900.7 1610.4 901.2 1331.8C901.2 1297.9 896.3 1271.5 855.1 1266.3C847.5 1265.4 839.3 1249.2 837 1238.7C836.1 1235 851.9 1222.8 860.3 1222.7C934.3 1221.4 1008.4 1220.5 1082.3 1223.4C1094.7 1223.9 1110.4 1241 1117.9 1254.2C1206.7 1410.5 1294.2 1567.4 1382.1 1724.2C1388.4 1735.5 1395 1746.6 1404.8 1763.5C1414.6 1747.1 1422.8 1734.8 1429.7 1721.8C1512.2 1567.1 1593.7 1400.6 1674.7 1245.1C1688.9 1217.9 1702.9 1207.7 1733.1 1207.9C1812 1208.5 1879.5 1208.5 1969.6 1207.5C1955 1229.3 1948.2 1250.6 1938.1 1252.3C1901.5 1258.6 1896.3 1294.6 1896.4 1325.7C1896.9 1589.8 1896.6 1853.9 1896.6 2118C1896.6 2138.4 1897.4 2158.7 1896.4 2179C1895 2208.6 1902.3 2228.6 1936.4 2235.2C1947.3 2237.3 1954.7 2257.1 1970.7 2277.7Z" fill="#FEFEFE"/>
<path d="M21.2993 46.9003C21.2993 38.2003 21.2993 22.8003 21.2993 0.500283C68.3993 0.500283 113.499 0.500283 158.599 0.500283C213.799 0.500283 269.099 -0.599668 324.199 1.30033C336.499 1.70033 356.899 11.5002 358.199 19.2002C360.399 31.4002 353.599 52.6003 343.499 57.4003C316.099 70.3003 319.699 84.6002 332.699 102.7C400.699 196.8 468.799 290.8 541.799 391.8C624.699 285 704.399 182.3 780.099 84.7002C760.599 65.1002 740.399 52.4003 732.499 34.9003C724.199 16.7003 736.499 3.20023 762.499 3.20023C853.499 3.20023 914.499 3.20023 1004.4 3.20023C1015.5 3.20023 1044.5 21.8003 1048.3 33.0003C1050.4 39.6003 1035.1 53.5002 1024.8 60.7002C996.999 80.0002 959.899 92.2003 940.399 116.6C845.299 235.8 755.399 358.5 661.999 478.9C645.299 500.5 645.799 515.2 662.099 536.2C775.099 682.9 885.799 831.2 1000.1 977C1018.7 1000.8 1051.5 1015.1 1083.7 1038.1C1083.7 1043 1083.7 1058.3 1083.7 1075.4C967.599 1075.4 854.799 1075.4 741.899 1075.4C731.099 1041.6 733.199 1015.8 790.299 1011.9C695.599 883.7 607.599 764.6 514.699 638.6C430.199 763.6 348.599 884.4 264.499 1008.9C282.599 1016.4 297.299 1022.5 312.899 1029C312.899 1043 312.899 1057.2 312.899 1074.6C208.299 1074.6 105.199 1074.6 0.199219 1074.6C0.199219 1057.2 0.199219 1041.7 0.199219 1021.9C68.6992 1024.5 99.1993 980.7 131.299 936C227.699 801.8 325.999 668.8 424.699 533.7C315.299 383.2 207.799 233.3 96.7993 85.7002C82.9993 67.3002 50.0993 61.1003 21.2993 46.9003Z" fill="#C59D3F"/>
<path fill-rule="evenodd" clip-rule="evenodd" d="M1548.4 888.001C1577.3 849.001 1631.7 775.801 1631.7 775.801L1687.2 825.701C1687.2 825.701 1629.2 899.501 1597.6 929.901C1657.9 993.801 1703.3 1042.4 1762.4 1105C1709.9 1100.9 1660.8 1101.2 1613.7 1091.5C1593.7 1087.4 1577.3 1063.1 1560.7 1046.5C1549.9 1035.7 1541.7 1022.3 1529.8 1006.7C1454.5 1082.8 1371.2 1116.4 1273 1096.5C1215.1 1084.7 1167.5 1052.2 1130 1005.8C1039.7 893.801 1053 762.301 1169.8 628.401C1108.5 537.401 1098 446.601 1181.9 361.901C1239.9 303.201 1335.2 289.601 1414 326.201C1481.7 357.601 1526.9 434.001 1521.4 510.701C1514.3 512.101 1506.6 514.201 1498.9 514.801C1453.9 518.201 1453.9 518.101 1446.5 472.701C1433.3 392.401 1374.2 351.801 1301.1 372.601C1222.4 395.001 1189.4 500.801 1247.2 566.201C1343.6 675.401 1446.1 779.301 1548.4 888.001ZM1479.2 959.201C1386.6 863.301 1295.1 768.701 1203.3 673.601C1136.9 757.601 1147.9 894.701 1223.2 960.001C1301.6 1028 1413.8 1029 1479.2 959.201Z" fill="#FEFEFE"/>
<path d="M2275.9 2173.4C2331.1 2173.4 2384.4 2173.4 2437.7 2173.4C2501.5 2173.4 2565.4 2172.8 2629.3 2173.3C2675.5 2173.7 2708.9 2151.3 2724.2 2110.3C2736.7 2076.6 2754.7 2068.7 2789.7 2080.3C2789.7 2144.5 2789.7 2210 2789.7 2277.9C2540.6 2277.9 2294.5 2277.9 2047.4 2277.9C2040.9 2254.5 2038.7 2236.2 2069.2 2232.9C2098.5 2229.8 2106.1 2210.7 2106 2183.9C2105.6 1892.1 2105.1 1600.4 2106.4 1308.6C2106.6 1264.4 2078.1 1257 2047.2 1249.3C2036 1217 2048 1206.1 2079.4 1206.2C2302.93 1206.73 2526.47 1206.67 2750 1206C2776.6 1205.9 2789.9 1212.2 2788.8 1242.3C2786.9 1298.6 2788.3 1355.1 2788.3 1412.9C2753.9 1422.8 2735.4 1418.6 2718.9 1383.3C2707.1 1357.8 2675.4 1325.7 2651.3 1324.5C2527.2 1318.6 2402.6 1321.8 2276 1321.8C2276 1445.4 2276 1565.3 2276 1692.1C2289.5 1692.1 2303.3 1692.1 2317.1 1692.1C2399.9 1692.1 2482.6 1693.4 2565.3 1691.5C2600.5 1690.6 2639.5 1691.6 2655 1646.5C2657.1 1640.4 2673.2 1633.2 2678.9 1635.7C2687.1 1639.2 2696.8 1651 2697.1 1659.5C2698.8 1710.2 2698.7 1761.1 2697.2 1811.8C2697 1820.6 2688.2 1834.2 2680.8 1836.1C2673 1838.1 2661.6 1830 2652.9 1824.6C2632 1811.7 2612.1 1786.9 2591.2 1786.1C2487.1 1782.1 2382.8 1784.2 2275.9 1784.2C2275.9 1913.1 2275.9 2038.8 2275.9 2173.4Z" fill="#FEFEFE"/>
</g>
<defs>
<clipPath id="clip0_2634_1005">
<rect width="2790" height="2280" fill="white"/>
</clipPath>
</defs>
</svg>
